<?xml version="1.0" encoding="UTF-8" standalone="no"?><!DOCTYPE svg PUBLIC "-//W3C//DTD SVG 1.1//EN" "http://www.w3.org/Graphics/SVG/1.1/DTD/svg11.dtd"><svg width="100%" height="100%" viewBox="0 0 3508 2481" version="1.1" xmlns="http://www.w3.org/2000/svg" xmlns:xlink="http://www.w3.org/1999/xlink" xml:space="preserve" xmlns:serif="http://www.serif.com/" style="fill-rule:evenodd;clip-rule:evenodd;stroke-linejoin:round;stroke-miterlimit:10;"><g><path d="M2836.14,629.897l-1333.91,0c-42.187,0 -76.375,27.475 -76.375,61.415l0,364.557l-140.694,185.214l1550.98,0c42.177,0 76.376,-27.475 76.376,-61.415l0,-488.356c0,-33.94 -34.199,-61.415 -76.376,-61.415" style="fill:none;fill-rule:nonzero;stroke:#00b8b2;stroke-width:10.42px;"/><path d="M1254.65,585.991c-58.129,-59.26 -147.918,-101.012 -283.414,-104.783c-135.495,3.771 -225.284,45.523 -283.413,104.783c-137.241,139.961 -101.469,362.779 -56.938,460.935c9.568,21.064 26.758,52.31 27.459,53.549c46.228,83.826 95.78,145.349 131.816,185.349l0,120.826l362.153,0l0,-120.826c36.03,-40 85.593,-101.523 131.816,-185.349c0.706,-1.239 17.891,-32.485 27.454,-53.549c44.536,-98.156 80.313,-320.974 -56.933,-460.935Z" style="fill:none;fill-rule:nonzero;stroke:#f89934;stroke-width:10.42px;stroke-linejoin:miter;"/><path d="M1140.84,1597.09l-338.041,0c-6.551,0 -11.906,-5.36 -11.906,-11.906l0,-52.962c0,-6.551 5.355,-11.906 11.906,-11.906l338.041,0c6.545,0 11.905,5.355 11.905,11.906l0,52.962c0,6.546 -5.36,11.906 -11.905,11.906Z" style="fill:none;fill-rule:nonzero;stroke:#00b8b2;stroke-width:4.17px;stroke-linejoin:miter;"/><path d="M972.399,1733.52l-76.785,0c10.489,64.372 76.785,63.844 76.785,63.844c0,0 66.295,0.528 76.785,-63.844l-76.785,0Z" style="fill:none;fill-rule:nonzero;stroke:#00b8b2;stroke-width:4.17px;stroke-linejoin:miter;"/><path d="M925.346,1406.65l-86.794,-411.496l86.794,411.496Z" style="fill:none;fill-rule:nonzero;stroke:#f89934;stroke-width:4.17px;stroke-linejoin:miter;"/><path d="M1021.37,1406.65l83.099,-424.425" style="fill:none;fill-rule:nonzero;stroke:#f89934;stroke-width:4.17px;stroke-linejoin:miter;"/><path d="M855.371,1074.89l81.052,-53.873l20.31,99.718l46.168,-134.789l27.696,110.762l57.246,-29.576" style="fill:none;fill-rule:nonzero;stroke:#f89934;stroke-width:4.17px;stroke-linejoin:miter;"/><path d="M1051.96,1733.52l-160.762,0c-55.074,0 -99.729,-44.65 -99.729,-99.73l0,-0.474l360.7,0c0.484,-0.005 0.98,-0.01 1.47,-0.016c-0.177,7.128 -1.81,42.452 -30.826,70.87c-28.725,28.137 -63.623,29.274 -70.853,29.35Z" style="fill:none;fill-rule:nonzero;stroke:#00b8b2;stroke-width:4.17px;stroke-linejoin:miter;"/><path d="M1139.68,1520.31l-338.041,0c-6.545,0 -11.905,-5.361 -11.905,-11.906l0,-52.963c0,-6.545 5.36,-11.905 11.905,-11.905l338.041,0c6.551,0 11.906,5.36 11.906,11.905l0,52.963c0,6.545 -5.355,11.906 -11.906,11.906Z" style="fill:none;fill-rule:nonzero;stroke:#00b8b2;stroke-width:4.17px;stroke-linejoin:miter;"/><path d="M1522.26,732.255l0,80.755l99.891,0l0,324.853l81.773,0l0,-324.853l99.638,0l0,-80.755l-281.302,0Z" style="fill:#f89934;fill-rule:nonzero;"/><path d="M1838.76,731.232l0,407.116l244.571,0l0,-81.025l-163.046,0l0,-81.779l122.286,0l0,-81.294l-122.286,0l0,-81.724l163.046,0l0,-81.294l-244.571,0Z" style="fill:#f89934;fill-rule:nonzero;"/><path d="M2454.95,1080.7l-58.123,-58.129c-24.157,24.189 -53.345,36.257 -87.565,36.257c-34.048,0 -63.069,-12.014 -87.058,-35.987c-24.152,-24.135 -36.23,-53.227 -36.23,-87.328c0,-33.671 12.078,-62.816 36.23,-87.274c23.822,-24.189 52.843,-36.256 87.058,-36.256c33.719,0 62.821,12.067 87.311,36.256l58.124,-58.129c-33.515,-32.323 -83.304,-60.121 -145.936,-60.121l0.253,-1.024c-56.362,0 -104.755,20.202 -145.182,60.661c-40.259,40.566 -60.391,89.105 -60.391,145.671c0,56.675 20.132,105.16 60.391,145.403c40.087,39.758 88.481,59.745 145.182,59.906c63.263,0 112.642,-26.882 145.936,-59.906Z" style="fill:#f89934;fill-rule:nonzero;"/><path d="M2490.16,732.255l0,405.608l81.272,0l0,-162.588l135.619,0l0,162.588l81.267,0l0,-405.608l-81.267,0l0,162.265l-135.619,0l0,-162.265l-81.272,0Z" style="fill:#f89934;fill-rule:nonzero;"/><path d="M1218.73,1312.18l0,92.306l114.162,0l0,371.236l93.458,0l0,-371.236l113.871,0l0,-92.306l-321.491,0Z" style="fill:none;fill-rule:nonzero;stroke:#00b8b2;stroke-width:10.42px;"/><path d="M1491.29,1775.73l100.645,0l31.343,-70.449l158.736,0l31.343,70.449l100.931,0l-211.645,-473.034l-211.353,473.034Zm168.799,-152.691l42.845,-98.059l42.269,98.059l-85.114,0Z" style="fill:none;fill-rule:nonzero;stroke:#00b8b2;stroke-width:10.42px;"/><path d="M1954.5,1312.18l0,463.542l279.507,0l0,-92.591l-186.34,0l0,-370.951l-93.167,0Z" style="fill:none;fill-rule:nonzero;stroke:#00b8b2;stroke-width:10.42px;"/><path d="M2274.22,1312.18l0,463.542l92.882,0l0,-194.388l135.156,194.388l113.294,0l-159.307,-228.032l137.165,-235.51l-107.546,0l-118.762,205.029l0,-205.029l-92.882,0Z" style="fill:none;fill-rule:nonzero;stroke:#00b8b2;stroke-width:10.42px;"/><path d="M2756.61,1684.9c-26.149,0 -54.271,-21.091 -54.271,-46.961l-92.51,19.685c10.543,69.033 75.357,121.618 147.062,121.618c78.029,0 148.187,-63.128 148.187,-141.303c0,-64.534 -51.599,-109.103 -110.089,-125.97c-32.194,-9.563 -85.059,-20.671 -85.059,-62.428c0,-25.73 21.371,-47.096 47.241,-47.096c25.449,0 46.82,21.366 46.82,46.816l92.511,-19.54c-9.563,-68.752 -68.613,-121.617 -139.892,-121.617c-78.174,0 -141.582,62.988 -141.582,141.157c0,63.128 49.913,109.523 106.43,128.788c32.06,11.103 88.858,17.013 88.858,59.33c0,25.73 -28.402,47.101 -54.126,47.101l0.42,0.42Z" style="fill:none;fill-rule:nonzero;stroke:#00b8b2;stroke-width:10.42px;"/></g></svg>